<?xml version="1.0" encoding="UTF-8"?>
<svg id="Camada_1" data-name="Camada 1" xmlns="http://www.w3.org/2000/svg" viewBox="0 0 159 155">
  <defs>
    <style>
      .cls-1 {
        fill: #d49c58;
      }
    </style>
  </defs>
  <path class="cls-1" d="m60.58,64.89c-.09.29-.19.6-.3.92v23.38c.1.32.2.63.29.9,4.22-4.22,8.45-8.43,12.63-12.6-4.18-4.17-8.39-8.38-12.62-12.6Z"/>
  <path class="cls-1" d="m98.43,64.91c-4.22,4.22-8.45,8.43-12.63,12.6,4.18,4.17,8.4,8.38,12.62,12.6.09-.29.19-.6.3-.92v-23.38c-.1-.32-.2-.63-.29-.9Z"/>
  <path class="cls-1" d="m96.82,63.21c-.33-.1-.58-.2-.83-.24-.29-.05-.6-.08-.89-.08-10.39,0-20.79,0-31.18,0-.55,0-1.1.14-1.69.21,5.81,5.8,11.52,11.5,17.31,17.28,5.72-5.69,11.48-11.41,17.28-17.18Z"/>
  <path class="cls-1" d="m83.79,79.37c-1.14,1.09-2.27,2.18-3.41,3.27-.68.65-1.25.65-1.91,0-1.08-1.08-2.16-2.15-3.24-3.23-.1-.09-.2-.18-.27-.25-4.23,4.23-8.45,8.43-12.67,12.65.48.25,1.03.32,1.6.32,10.41,0,20.82,0,31.22,0,.14,0,.28.02.41-.01.41-.08.81-.17,1.23-.26-4.26-4.26-8.48-8.46-12.71-12.69-.06.06-.16.13-.25.22Z"/>
</svg>