<?xml version="1.0" encoding="UTF-8"?>
<svg id="guias" xmlns="http://www.w3.org/2000/svg" viewBox="0 0 1500 1500">
  <defs>
    <style>
      .cls-1 {
        fill: #173557;
      }

      .cls-2 {
        fill: #d59d58;
      }
    </style>
  </defs>
  <g>
    <path class="cls-1" d="m786.77,688.71c-.16-.3-.31-.59-.47-.89.16.3.31.6.47.89Z"/>
    <path class="cls-1" d="m791.55,696.98c-.04-.07-.09-.14-.13-.21.04.07.09.14.13.21Z"/>
    <path class="cls-1" d="m900.55,763.04c-20.92-1.58-40.56-7.73-57.95-17.44,17.31,9.84,36.97,16.01,57.95,17.44Z"/>
    <path class="cls-1" d="m1352.57,683.07c-16.5-28.74-48.08-40.53-59.58-44.83-14.8-5.54-46.63-13.78-68.74-19.59-11.06-2.91-26.07-6.74-29.26-17.34-2.15-7.16,2.24-14.1,2.77-14.92,1.47-2.27,7.4-10.35,27.21-11.75,47.57-3.38,80.19,38.48,107.18,25.03,3.23-1.61,8.15-4.9,12.61-12.35,1.95-4.43,3.97-10.91,2.82-18.19-5.27-33.41-71.02-53.72-121.15-52.76-14.58.28-83.35,1.59-109.31,47.48-14.32,25.33-9.31,51.95-9.31,51.95,3.7,19.66,14.81,32.87,21.03,39.03,9.77,9.69,19.25,13.65,37.04,20.88,6.68,2.71,11.9,4.55,16.46,5.97,19.5,6.06,28.22,8.03,38.12,11.02,19.13,5.79,45.38,14.83,52.56,33.83,3.53,9.34.17,20.34-6.67,28.26-2.59,3-9.18,9.67-28.2,12.13-22.1,2.86-56.34-.04-87.53-17.81-5.47-3.12-15.46-9.26-27.94-7.86-4.39.49-13.88,2.22-20.55,10.28-9.61,11.61-7.39,25.97-6.65,29.45.73,3.41,3.43,13.53,16.38,24.18,47.64,39.21,119.62,31.95,119.62,31.95,29.39-2.97,92.11-9.3,119.43-59.58,14.39-26.49,18.71-64.71,1.64-94.45Z"/>
    <path class="cls-1" d="m392.09,524.52h0c-24.68,0-44.69,20.01-44.69,44.69v129.37c0,12.59-2.65,23.34-7.95,32.28-5.3,8.94-12.41,15.81-21.35,20.61-8.94,4.8-19.37,7.2-31.29,7.2s-22.1-2.4-31.53-7.2c-9.44-4.8-16.88-11.75-22.35-20.86-5.46-9.1-8.19-19.94-8.19-32.53v-85.17c0-48.82-39.57-88.39-88.39-88.39v167.11c0,28.14,6.28,53.31,18.87,75.48,12.58,22.18,30.21,39.48,52.89,51.89,22.67,12.42,48.91,18.62,78.71,18.62s56.36-6.21,78.71-18.62c22.35-12.41,39.81-29.62,52.39-51.64,12.58-22.01,18.87-47.09,18.87-75.23v-122.92c0-24.68-20.01-44.69-44.69-44.69Z"/>
    <path class="cls-1" d="m741.84,576.05s-4.16-6.65-10.34-13.35c-14-15.16-29.89-24.35-29.89-24.35-26.95-15.59-55.13-15.76-62.74-15.8-54.23-.25-92.77,37.93-98.81,44.09v-4.34c0-15.72-9.5-28.99-23.07-34.74-4.64-1.97-9.76-3.06-15.14-3.06h-3.08c-5.38,0-10.5,1.09-15.14,3.06-13.57,5.75-23.07,19.02-23.07,34.74v234.58c0,22.47,18.21,40.68,40.68,40.68h3.08c22.47,0,40.68-18.22,40.68-40.68v-109.57c-.07-2.67-.13-6.66.03-11.5,0-.29.02-.58.03-.87.44-13.33.99-24.91,4.86-35.82,1.02-2.54,2.2-5,3.54-7.36,5.6-9.85,13.33-17.48,23.19-22.86,9.85-5.38,21.06-8.07,33.61-8.07,19.26,0,34.96,6.05,47.06,18.15,12.1,12.1,18.15,27.79,18.15,47.06v10.1s0,.04,0,.06v120.37s0,.08,0,.12c.06,22.58,18.39,40.87,40.99,40.87,2.53.16,19.15.95,32.07-12.01,11.59-11.63,11.99-26.07,12.01-28.98v-139.51c0-31.56-5.43-57.33-16.13-76.59-.84-1.51-1.7-2.98-2.58-4.42Z"/>
    <path class="cls-1" d="m784.32,668.93c.13.27.29.64.5,1.08-.17-.41-.34-.82-.5-1.23v.14Z"/>
    <path class="cls-1" d="m899.14,757.23c-5.41-.71-12.41-1.89-20.09-3.84,6.52,1.75,13.23,3.04,20.09,3.84Z"/>
    <path class="cls-1" d="m887.97,740.04c-3.66-4.05-6.78-8.59-9.27-13.5.68,1.4,1.41,2.76,2.2,4.08,2.07,3.45,4.43,6.59,7.07,9.42Z"/>
    <path class="cls-1" d="m784.65,684.59c.53,1.08,1.08,2.16,1.64,3.23-.56-1.07-1.11-2.14-1.64-3.23Z"/>
    <path class="cls-1" d="m791.42,696.77c-1.64-2.63-3.19-5.32-4.66-8.06,1.46,2.74,3.02,5.43,4.66,8.06Z"/>
    <g>
      <path class="cls-2" d="m887.97,740.04c-2.64-2.83-5-5.97-7.07-9.42-.79-1.32-1.52-2.69-2.2-4.08-3.99-8.21-5.99-17.69-5.99-28.44v-85.17c0-38.47-24.59-71.19-58.9-83.33-2.29-.81-4.62-1.53-6.99-2.15-.03,0-.06-.02-.09-.03-.02,0-.04,0-.06-.01-7.14-1.87-14.63-2.87-22.35-2.87v144.27c.16.41.33.82.5,1.23,9.55,23.58,25.29,43.99,45.21,59.22,14.41,11.02,31,19.32,49.02,24.15,7.68,1.95,14.68,3.14,20.09,3.84,4.44.52,8.95.84,13.51.93,1.89-.04,3.34-.11,3.34-.11.27-.01.54-.03.81-.05-11.25-3.21-21.2-9.52-28.84-17.96Z"/>
      <path class="cls-1" d="m1045.03,524.8c-7.24-.8-14.14.18-20.41,2.5-2.19.81-4.31,1.77-6.32,2.89,0,0,0,0-.01,0-2.48,1.39-4.83,3-6.99,4.82-9.74,8.2-15.93,20.47-15.93,34.2-.03,41.21-.06,82.42-.09,123.63,0,9.05-1.3,18.07-4.09,26.68-1.1,3.39-2.42,6.75-3.97,9.53-.28.5-1.43,2.61-3.29,5.25,0,0-3.08,4.37-6.98,8.21-8.2,8.06-20.93,13.58-20.93,13.58-19.25,8-40.81,7.94-53.88,7.05-3.14-.21-5.79-.47-7.8-.68-18.64-2.13-36.14-8-51.74-16.86-6.32-3.53-12.34-7.54-18.01-11.97-.55-.43-1.1-.87-1.64-1.31-.07-.06-.15-.12-.22-.18-.81-.65-1.6-1.32-2.4-2-3.04-2.58-5.67-5.01-7.85-7.15-.83-.81-1.65-1.62-2.45-2.45-6.95-7.16-13.16-15.06-18.47-23.56-.04-.07-.09-.14-.13-.21-1.64-2.63-3.19-5.32-4.66-8.06-.16-.3-.31-.6-.47-.89-.56-1.07-1.11-2.14-1.64-3.23-.11-.22-.23-.43-.33-.65v7.69c0,28.14,6.28,53.31,18.87,75.48,12.58,22.18,30.21,39.48,52.89,51.89,22.67,12.42,48.91,18.62,78.71,18.62s56.36-6.21,78.71-18.62c22.35-12.41,39.81-29.62,52.39-51.64,12.58-22.01,18.87-47.09,18.87-75.23v-122.17c0-22.9-16.97-42.64-39.73-45.17Z"/>
    </g>
  </g>
  <g>
    <path class="cls-2" d="m892.04,941.06l-43.81-51.92h-24.74v94.54h17.89v-78.54s44.33,51.62,44.33,51.62c5.67,6.45,6.13,18.05,6.13,26.92h19.83v-94.54h-19.64s0,51.92,0,51.92Z"/>
    <path class="cls-2" d="m1112.07,929.03l34.76-39.89h-24.05s-46.25,51.12-46.25,51.12v-51.12s-17.89,0-17.89,0v94.54h17.89s0-20.38,0-20.38l22.32-22.23c15.49,7.27,24.34,28.06,24.34,42.6h19.63c0-19.92-9.8-44.32-30.75-54.64Z"/>
    <path class="cls-2" d="m423.41,934.81c4.72-4.8,7.65-11.06,7.65-18.04,0-15.27-13.84-27.63-30.92-27.63h-46.97v39.72h17.89v-23.72h29.08c7.16,0,13.02,5.24,13.02,11.63s-5.86,11.64-13.02,11.64h-46.97v55.27h57.27c17.08,0,30.46-6.85,30.91-27.63.33-15.5-11.14-19.63-17.94-21.23Zm-12.97,32.87h-39.37v-23.27h39.37c7.16,0,13.02,5.23,13.02,11.64s-5.86,11.63-13.02,11.63Z"/>
    <path class="cls-2" d="m577.36,983.68l43.44-95h23.09l43.6,95h-19.38l-9.85-22.02h-52.48l-9.85,22.02h-18.57Zm34.23-35.17h40.69l-12.43-27.84c-.32-.83-.81-1.98-1.45-3.46-.65-1.48-1.32-3.09-2.02-4.85-.7-1.75-1.4-3.53-2.1-5.33-.7-1.8-1.32-3.44-1.86-4.92h-.97c-.65,1.75-1.45,3.83-2.42,6.23-.97,2.4-1.91,4.71-2.83,6.92-.92,2.22-1.7,4.02-2.34,5.4l-12.27,27.84Z"/>
  </g>
</svg>