<?xml version="1.0" encoding="UTF-8"?>
<svg id="Camada_1" data-name="Camada 1" xmlns="http://www.w3.org/2000/svg" viewBox="0 0 159 155">
  <defs>
    <style>
      .cls-1 {
        fill: #d49c58;
      }
    </style>
  </defs>
  <path class="cls-1" d="m102.13,80.51c-.05-1.84-.61-3.72-1.24-5.47-.82-2.25-2.51-3.82-4.89-4.36-1.74-.39-3.53-.69-5.31-.72-3.33-.06-6.33.89-8.48,3.66-.06.07-.19.09-.44.2v-3.73h-8.25v30.18h8.75c0-.44,0-.79,0-1.15,0-4.79,0-9.57.04-14.36.01-1.69.24-3.35,1.05-4.87,1.07-2.01,2.82-2.58,4.97-2.46,1.99.11,3.37,1.07,4.01,2.91.39,1.12.7,2.32.73,3.49.11,5.11.1,10.23.14,15.34,0,.35,0,.7,0,1.1h8.98c.03-.19.09-.33.08-.47-.02-6.43.04-12.86-.13-19.29Z"/>
  <path class="cls-1" d="m56.79,100.28h10.33v-30.2h-10.33v30.2Z"/>
  <path class="cls-1" d="m61.93,54.72c-3.04,0-5.18,2.18-5.19,5.3-.01,3.13,2.11,5.32,5.16,5.33,3.06,0,5.24-2.17,5.26-5.25.02-3.13-2.16-5.38-5.23-5.38Z"/>
</svg>