<?xml version="1.0" encoding="UTF-8"?>
<svg id="Camada_1" data-name="Camada 1" xmlns="http://www.w3.org/2000/svg" viewBox="0 0 159 155">
  <defs>
    <style>
      .cls-1 {
        fill: #fff;
      }

      .cls-2 {
        opacity: .46;
      }
    </style>
  </defs>
  <g class="cls-2">
    <path class="cls-1" d="m45.4,68.79c5.61,5.05,11.2,10.09,16.83,15.16.19-.42.37-.82.55-1.23,3.97-9.13,7.93-18.27,11.9-27.4.21-.48.38-.97.63-1.42.19-.35.1-.51-.19-.73-1.28-.94-2.21-2.14-2.76-3.63-1.68-4.55,1.48-9.69,6.56-10.1,4.46-.36,7.71,3.17,8.11,6.61.33,2.93-.76,5.26-3.05,7.07-.44.35-.45.34-.23.84,1.33,3.06,2.65,6.12,3.98,9.18,2.91,6.7,5.81,13.4,8.72,20.1.09.22.2.43.32.68,5.63-5.04,11.23-10.05,16.83-15.06-.24-.4-.51-.78-.73-1.19-2-3.66-.56-8.31,3.15-10.22,2.54-1.31,5.05-1.23,7.49.22,2.63,1.56,4.1,4.91,3.52,7.8-.65,3.23-3.12,5.64-6.29,6.14-.36.06-.64.09-.75.58-1.29,5.34-2.61,10.68-3.93,16.02-.75,3.02-1.5,6.03-2.23,9.05-.08.32-.06.67-.05,1.01.02,1.38.07,2.76.08,4.14.01,3.65,0,7.29,0,10.94,0,1.38-.84,2.23-2.22,2.24-2.81,0-5.62,0-8.43,0-18.52,0-37.05,0-55.57,0-.09,0-.18,0-.27,0-1.35-.03-2.17-.85-2.19-2.2-.01-.91,0-1.82,0-2.73,0-3.53,0-7.07,0-10.6,0-.69.09-1.39.12-2.08.01-.25,0-.51-.07-.75-1.97-8.01-3.95-16.02-5.93-24.04-.1-.4-.17-.82-.3-1.21-.04-.13-.22-.29-.35-.3-3.5-.34-6.18-3.21-6.67-6.41-.45-2.95,1-6.58,4.5-8.08,4.75-2.04,9.55,1.08,10.45,5.47.46,2.22-.06,4.21-1.42,6-.02.03-.03.07-.07.14Zm70.8,2.94s-.09-.03-.13-.05c-.04.03-.08.06-.11.09-1.88,1.69-3.76,3.39-5.64,5.08-2.93,2.63-5.86,5.26-8.78,7.9-1.39,1.25-2.77,2.53-4.18,3.76-1.03.89-2.33.61-2.95-.59-.2-.38-.36-.78-.53-1.18-2.33-5.38-4.66-10.76-6.99-16.14-2.25-5.21-4.51-10.41-6.75-15.63-.16-.38-.39-.36-.7-.39-.33-.02-.41.17-.51.4-.6,1.38-1.2,2.76-1.8,4.14-3.57,8.22-7.14,16.44-10.71,24.66-.58,1.33-1.16,2.67-1.75,4-.41.92-1.21,1.43-2.08,1.19-.5-.14-.97-.48-1.37-.83-1.9-1.67-3.76-3.39-5.65-5.08-1.7-1.52-3.42-3.01-5.11-4.54-2.41-2.16-4.81-4.34-7.22-6.51-.12-.11-.25-.19-.45-.34.02.17.02.26.04.34,1.18,4.8,2.35,9.6,3.53,14.4.8,3.24,1.6,6.48,2.39,9.72.08.33.23.41.54.41,8.34,0,16.69,0,25.03,0,11.64,0,23.27,0,34.91-.01.3,0,.6,0,.91,0,2.02-8.28,4.03-16.54,6.05-24.79Zm-67.24,28.58c0,.79,0,1.53,0,2.26,0,2.95,0,5.9,0,8.85,0,.3.11.36.38.36,6.49-.01,12.99-.03,19.48-.03,7.84,0,15.67,0,23.51,0,5.76,0,11.52,0,17.28.02.38,0,.43-.12.43-.45-.01-3.43,0-6.86-.01-10.29,0-.81.13-.71-.7-.71-19.95,0-39.9,0-59.85,0-.15,0-.3,0-.52,0Zm-9.53-32.35c2.1.01,3.86-1.67,3.88-3.72.02-2.16-1.68-3.91-3.8-3.92-2.16-.01-3.87,1.65-3.88,3.78-.01,2.24,1.58,3.85,3.8,3.87Zm80.06,0c2.15.02,3.85-1.62,3.88-3.73.03-2.14-1.65-3.89-3.76-3.9-2.14-.02-3.93,1.7-3.94,3.79-.02,2.1,1.7,3.83,3.83,3.85Zm-43.83-21.01c-.08,2.03,1.59,3.81,3.66,3.89,2.15.09,3.95-1.58,4.03-3.72.07-2.07-1.51-3.78-3.6-3.88-2.26-.1-4,1.48-4.09,3.71Z"/>
  </g>
</svg>