<?xml version="1.0" encoding="UTF-8"?>
<svg id="Camada_1" data-name="Camada 1" xmlns="http://www.w3.org/2000/svg" viewBox="0 0 159 155">
  <defs>
    <style>
      .cls-1 {
        fill: #d49c58;
      }
    </style>
  </defs>
  <path class="cls-1" d="m97.43,72.05c-1.61-5.38-4.67-9.53-9.98-11.72-4.48-1.85-9.05-1.8-13.59-.23-5.42,1.87-9.5,5.27-11.51,10.77-1.6,4.39-1.12,8.76.61,12.99.83,2.02.85,3.88.01,5.89-.83,2-1.43,4.1-2.2,6.33,3.23-1.02,6.25-1.96,9.25-2.92.6-.19,1.12-.16,1.69.13,4.18,2.13,8.53,2.44,13,1.11,8.72-2.6,15.89-11.69,12.7-22.34Zm-6.66,15.77c-4.55,4.76-12.44,5.79-18.34,2.49-.83-.46-1.55-.53-2.43-.21-1.45.53-2.93.96-4.62,1.5.26-.75.46-1.29.64-1.84.35-1.07.76-2.13.99-3.22.1-.46-.07-1.09-.33-1.51-3.26-5.33-3.1-10.71.05-15.94,3.15-5.23,7.85-7.85,14.09-7.42,1.98.14,3.89.49,5.69,1.34,4.66,2.21,7.29,6,8.17,10.99.92,5.19-.18,9.93-3.9,13.82Z"/>
  <path class="cls-1" d="m88.72,81.37c-1.16-.63-2.34-1.21-3.55-1.75-.49-.22-.95-.04-1.28.44-.26.38-.55.75-.84,1.12-.43.56-.94.68-1.61.38-2.13-.96-3.88-2.35-5.23-4.27-.8-1.14-.84-1.32.07-2.35.7-.79.75-1.6.35-2.51-.36-.83-.72-1.66-1.07-2.49-.28-.67-.73-1.04-1.48-.84-1.04-.15-1.67.42-2.19,1.19-.63.94-.96,1.97-.95,3.11.02,1.68.65,3.15,1.55,4.52,1.69,2.57,3.97,4.51,6.61,6.05,1.53.9,3.16,1.57,4.93,1.82,1.31.19,2.54-.09,3.63-.85.94-.66,1.48-1.57,1.41-2.74-.02-.29-.14-.72-.35-.83Z"/>
</svg>