<?xml version="1.0" encoding="UTF-8"?>
<svg id="Camada_1" data-name="Camada 1" xmlns="http://www.w3.org/2000/svg" viewBox="0 0 159 155">
  <defs>
    <style>
      .cls-1 {
        fill: #d49c58;
      }
    </style>
  </defs>
  <path class="cls-1" d="m88.75,77.58h-6.38v21.55h-8.64v-21.48h-4.25v-8.7h4.11c0-.38-.02-.68,0-.98.11-1.75.08-3.53.36-5.25.57-3.5,2.65-5.67,6.18-6.39,3.04-.62,6.09-.46,9.2-.29v7.32c-.87,0-1.69,0-2.51,0-.68,0-1.36-.03-2.04.01-1.28.08-1.91.58-2.04,1.85-.13,1.17-.03,2.36-.03,3.64h6.82c-.26,2.93-.51,5.75-.78,8.72Z"/>
</svg>