<?xml version="1.0" encoding="UTF-8"?>
<svg id="Camada_1" data-name="Camada 1" xmlns="http://www.w3.org/2000/svg" viewBox="0 0 159 155">
  <defs>
    <style>
      .cls-1 {
        fill: #d49c58;
      }
    </style>
  </defs>
  <path class="cls-1" d="m102.29,67.85c-.03-2.24-.41-4.51-.91-6.7-.67-2.95-2.62-4.89-5.55-5.62-1.95-.48-3.97-.89-5.97-.91-7.84-.08-15.69,0-23.53.03-.45,0-.9.06-1.35.11-3.52.45-6.08,2.25-7.15,5.67-.62,1.99-1.04,4.12-1.08,6.2-.13,7.21-.08,14.42-.03,21.63.02,2.3.37,4.57,1.25,6.73,1.16,2.85,3.24,4.6,6.27,5.17.85.16,1.74.23,2.61.23,4.19.02,8.39.01,12.58.01h0c4.41,0,8.81.03,13.22-.01,4.83-.05,8.65-3.28,9.42-8.02.24-1.51.18-3.07.19-4.6.04-6.64.14-13.28.05-19.91Zm-3.98,22.7c-.01,3.44-2.29,5.85-5.67,5.9-7.66.1-15.33.15-22.99.14-1.52,0-3.07-.25-4.56-.57-2.19-.46-3.56-1.9-3.99-4.08-.31-1.56-.53-3.17-.53-4.75,0-7.66.06-15.33.16-22.99.04-3.28,2.45-5.59,5.76-5.61,4.35-.03,8.69,0,13.04,0s8.57-.01,12.86,0c3.55.02,5.93,2.35,5.94,5.9.03,8.69.03,17.38,0,26.07Z"/>
  <path class="cls-1" d="m79.46,65.86c-6.88.02-11.84,4.89-11.82,11.61.02,6.85,4.98,11.76,11.89,11.75,6.86,0,11.8-4.92,11.8-11.73,0-6.79-4.96-11.65-11.88-11.63Zm.08,19.63c-4.48.04-7.87-3.36-7.9-7.92-.03-4.58,3.27-7.95,7.81-7.98,4.55-.02,7.87,3.3,7.89,7.89.02,4.58-3.29,7.97-7.8,8.01Z"/>
  <path class="cls-1" d="m92.26,62.27c-1.57.01-2.71,1.17-2.73,2.76-.02,1.63,1.15,2.78,2.8,2.76,1.54-.02,2.59-1.13,2.59-2.75,0-1.65-1.09-2.79-2.67-2.77Z"/>
</svg>