<?xml version="1.0" encoding="UTF-8"?>
<svg id="Camada_1" data-name="Camada 1" xmlns="http://www.w3.org/2000/svg" viewBox="0 0 159 155">
  <defs>
    <style>
      .cls-1 {
        fill: #fff;
      }

      .cls-2 {
        opacity: .46;
      }
    </style>
  </defs>
  <g class="cls-2">
    <path class="cls-1" d="m92.07,69.2c-2.58-1.72-5.05-3.36-7.53-5.01-2.79-1.85-2.6-5.08.39-6.62.97-.5,1.96-.97,2.91-1.51,1.47-.83,2.86-.74,4.28.16,3.93,2.5,7.89,4.95,11.82,7.44.57.36,1.05.45,1.7.18,3.81-1.56,7.64-3.1,11.47-4.6,3.76-1.47,7.69.53,8.67,4.36.76,2.98-.72,6.05-3.62,7.36-3.73,1.69-7.49,3.31-11.21,5-.42.19-.84.57-1.06.96-2.91,5.25-5.8,10.51-8.65,15.79-.61,1.13-1.4,2-2.59,2.53-.87.39-1.69.88-2.54,1.3-1.63.82-3.12.68-4.31-.39-1.19-1.07-1.49-2.55-.85-4.24,1.11-2.91,2.23-5.81,3.35-8.71.07-.18.13-.36.24-.7-.95.37-1.77.68-2.59,1-2.82,1.11-5.64,2.19-8.44,3.35-1.57.65-2.94.51-4.37-.43-4.12-2.72-8.29-5.36-12.43-8.05-1.88-1.22-2.56-3.51-1.2-5.07,1.73-1.98,4.09-3.2,6.65-3.83.6-.15,1.38.18,2.01.45,2.27.96,4.52,1.98,6.76,3.01.6.28,1.1.32,1.73.05,2.85-1.18,5.72-2.3,8.58-3.44.23-.09.46-.2.81-.36Zm2.13,24.28c.97-.5,1.7-.93,2.46-1.26.74-.32,1.2-.82,1.58-1.52,3.01-5.55,6.04-11.08,9.1-16.6.21-.38.6-.74,1-.93,1.65-.78,3.32-1.49,4.99-2.23,2.46-1.09,4.93-2.16,7.38-3.27,1.23-.56,1.79-1.64,1.64-2.94-.12-1.08-.94-2.14-2.05-2.28-.74-.1-1.58.03-2.27.3-11.88,4.71-23.74,9.47-35.62,14.19-.38.15-.94.13-1.32-.03-2.73-1.17-5.43-2.41-8.15-3.61-.27-.12-.69-.19-.92-.07-1.16.61-2.29,1.29-3.48,1.98.19.15.31.26.44.35,4.05,2.62,8.1,5.24,12.17,7.83.28.18.8.18,1.13.05,4.68-1.82,9.34-3.67,14-5.51,1.47-.58,2.94-1.16,4.59-1.8-2.24,5.82-4.41,11.46-6.68,17.35Zm-7.9-32.57c.08.12.09.19.14.22,3.13,2.09,6.25,4.17,9.39,6.25.15.1.39.19.53.13,1.39-.53,2.77-1.1,4.28-1.7-3.58-2.24-7.02-4.41-10.47-6.55-.16-.1-.49-.07-.69.03-1.06.51-2.1,1.07-3.18,1.63Z"/>
    <g>
      <path class="cls-1" d="m73.37,97.85h-36.45v-44.71h36.45v13.27l3.89,1.82c0-6.28,0-14.39,0-20.67,0-5.06-3.44-8.51-8.51-8.52-9.08-.02-18.17-.03-27.25.03-1.25,0-2.59.25-3.72.76-3.27,1.48-4.77,4.17-4.77,7.75.01,9.96,0,19.92,0,29.89s0,19.82,0,29.73c0,.72,0,1.45.13,2.15.75,3.97,4,6.61,8.16,6.62,9.22.01,18.43,0,27.65,0,.53,0,1.07-.02,1.6-.11,4.05-.75,6.7-4.03,6.7-8.35,0-6.1,0-12.2,0-18.3l-3.89-2.73v11.39Zm-36.36-51.69c.41-2,2.11-3.24,4.28-3.27,1.95-.02,3.9,0,5.85,0,7.21,0,14.42,0,21.63,0,2.37,0,4.16,1.31,4.52,3.38.16.93.12,1.9.18,2.94h-36.63c.05-1.05-.02-2.08.18-3.05Zm36.4,61.5c-.03,2.74-1.74,4.46-4.46,4.46-9.21,0-18.43,0-27.64,0-2.71,0-4.42-1.69-4.44-4.38-.02-1.95,0-3.89,0-5.94h36.5c.02.27.05.5.05.74,0,1.71.01,3.42,0,5.13Z"/>
      <path class="cls-1" d="m58.74,105.03c-2.4-.02-4.8-.01-7.19,0-1.24,0-2.11.82-2.1,1.93,0,1.11.88,1.9,2.12,1.91,1.17.01,2.34,0,3.52,0,1.23,0,2.45.01,3.68,0,1.2-.02,2.03-.8,2.05-1.89.02-1.13-.82-1.94-2.07-1.95Z"/>
    </g>
  </g>
</svg>