<?xml version="1.0" encoding="UTF-8"?>
<svg id="Camada_1" data-name="Camada 1" xmlns="http://www.w3.org/2000/svg" viewBox="0 0 159 155">
  <defs>
    <style>
      .cls-1 {
        fill: #fff;
      }

      .cls-2 {
        opacity: .46;
      }
    </style>
  </defs>
  <g class="cls-2">
    <path class="cls-1" d="m74.71,122.43c-1.62-.33-3.28-.57-4.87-1.02-9.26-2.64-16.16-10.75-17.26-20.28-.2-1.71-.19-3.44-.2-5.16-.03-4.06.12-8.13-.04-12.19-.2-5.07,4.24-7.08,7.96-5.98,1.1.33,2.14.87,3.3,1.36,0-.28,0-.58,0-.89-.03-5.15-.11-10.29-.08-15.44,0-1.98.08-3.99.4-5.94.48-2.91,3.35-5.3,6.35-5.55,3.47-.29,6.56,1.52,7.75,4.66.34.91.51,1.93.54,2.9.07,2.74.02,5.49.02,8.36,2.12-1.06,4.23-1.35,6.41-.53,2.15.8,3.61,2.31,4.48,4.5,2.4-1.36,4.84-1.63,7.32-.47,2.46,1.16,3.82,3.18,4.28,5.89,1.87-.99,3.78-1.23,5.74-.69,3.2.87,5.44,3.8,5.46,7.14.02,5.12.05,10.24,0,15.35-.14,12.27-9.5,22.51-21.7,23.82-.2.02-.39.1-.58.15h-15.27Zm-7.37-44.1c0,6.35,0,12.69,0,19.04,0,1.7-.67,2.61-1.91,2.58-1.22-.03-1.8-.88-1.82-2.58-.03-3.6-.02-7.19-.15-10.79-.1-2.89-1.94-4.88-4.67-5.31-1.76-.28-2.68.49-2.68,2.28,0,4.71-.03,9.42.02,14.13.01,1.4.12,2.81.35,4.19,1.45,8.87,9.44,16.18,18.42,16.69,4.17.24,8.36.13,12.54.13,1.28,0,2.57-.11,3.84-.29,9.16-1.36,16.64-9.32,17.12-18.57.29-5.6.15-11.23.13-16.84,0-2.05-1.67-3.58-3.67-3.61-2.01-.03-3.63,1.44-3.78,3.49-.07,1.02-.03,2.05-.04,3.07,0,.32.02.64,0,.96-.07,1.06-.87,1.83-1.87,1.83-1,0-1.82-.77-1.83-1.84-.03-3.01.04-6.03-.05-9.04-.03-.86-.3-1.8-.75-2.54-.82-1.36-2.58-1.85-4.1-1.37-1.57.5-2.6,1.87-2.61,3.56-.02,3.07,0,6.14-.01,9.21,0,1.05-.6,1.79-1.52,1.98-.83.17-1.77-.31-2.05-1.13-.13-.37-.15-.8-.15-1.21-.01-4.04,0-8.07-.02-12.11,0-.6-.07-1.24-.27-1.8-.58-1.68-2.31-2.67-4.03-2.39-1.89.31-3.18,1.78-3.19,3.71-.02,4.12,0,8.25,0,12.37,0,1.68-.62,2.55-1.83,2.58-1.24.03-1.9-.87-1.9-2.59,0-8.83,0-17.67,0-26.5,0-.52-.03-1.06-.14-1.57-.34-1.63-1.85-2.94-3.44-3.04-1.59-.1-3.16.91-3.67,2.45-.18.54-.24,1.15-.24,1.72-.02,6.38-.01,12.75,0,19.13Z"/>
    <path class="cls-1" d="m72.95,32.57c1.23.22,2.47.4,3.68.68,10.15,2.38,17.57,10.85,18.65,21.21.28,2.73.1,5.43-.54,8.09-.33,1.38-1.18,2.03-2.34,1.78-1.11-.24-1.62-1.26-1.31-2.64,1.4-6.24.23-11.96-3.54-17.11-4.78-6.53-13.32-9.62-21.16-7.73-8.09,1.95-14.23,8.46-15.59,16.47-.48,2.81-.39,5.58.23,8.35.32,1.4-.17,2.4-1.26,2.66-1.17.28-2.05-.39-2.4-1.82-3.24-13.14,5.5-26.82,18.78-29.41,1.03-.2,2.06-.35,3.09-.53,1.23,0,2.46,0,3.69,0Z"/>
    <path class="cls-1" d="m71.04,41.98c9.01-.04,16.08,7.95,14.89,16.82-.14,1.05-.98,1.75-2,1.67-.97-.07-1.74-.86-1.68-1.89.09-1.79.07-3.55-.52-5.28-1.84-5.4-7.43-8.57-13.04-7.37-5.45,1.16-9.24,6.3-8.77,11.88.02.23.04.47.05.7.04,1.17-.6,1.98-1.64,2.12-1.06.14-1.82-.46-2.06-1.68-.36-1.84-.19-3.68.25-5.48,1.63-6.77,7.58-11.46,14.53-11.49Z"/>
  </g>
</svg>