<?xml version="1.0" encoding="UTF-8"?>
<svg id="Camada_1" data-name="Camada 1" xmlns="http://www.w3.org/2000/svg" viewBox="0 0 159 155">
  <defs>
    <style>
      .cls-1 {
        fill: #d49c58;
      }
    </style>
  </defs>
  <path class="cls-1" d="m89.69,96.73c-1.94-.01-3.49-.46-5.02-1.03-2.34-.86-4.71-1.65-6.86-2.96-2.79-1.7-5.25-3.81-7.55-6.11-2.13-2.13-4.11-4.4-5.7-6.97-.53-.86-1.07-1.75-1.45-2.68-.81-1.98-1.57-3.99-2.26-6.02-1.12-3.26-.5-6.3,1.22-9.23,1.15-1.96,2.78-3.03,5-3.3.3-.04.6-.06.9-.12.8-.14,1.34.19,1.72.88,1,1.81,2,3.62,3.03,5.41.39.68.85,1.31,1.24,1.98.45.78.43,1.29-.18,1.96-.6.65-1.28,1.23-1.94,1.83-.66.6-1.34,1.17-2,1.77-.53.49-.68,1.09-.32,1.73.85,1.47,1.67,2.97,2.62,4.38,2.3,3.42,5.33,6.05,8.9,8.08.69.39,1.38.78,2.08,1.16.67.36,1.28.22,1.77-.32.65-.72,1.27-1.47,1.92-2.19.53-.59,1.06-1.19,1.65-1.72.68-.62,1.2-.65,2-.19,2,1.15,3.98,2.32,5.97,3.48.58.34,1.16.66,1.73,1.01.41.25.6.63.57,1.13-.07,1.35-.32,2.67-.92,3.87-.29.59-.81,1.11-1.34,1.52-2.06,1.62-4.38,2.63-6.76,2.67Z"/>
</svg>