<?xml version="1.0" encoding="UTF-8"?>
<svg id="guias" xmlns="http://www.w3.org/2000/svg" viewBox="0 0 1500 1500">
  <defs>
    <style>
      .cls-1 {
        fill: #173557;
      }

      .cls-2 {
        fill: #d59d58;
      }
    </style>
  </defs>
  <g>
    <path class="cls-2" d="m627.14,816.28c-6.95-7.46-13.16-15.72-18.6-24.81-2.09-3.48-4.01-7.07-5.8-10.75-10.51-21.62-15.78-46.57-15.78-74.89v-224.26c0-101.3-64.74-187.44-155.09-219.42-6.03-2.13-12.17-4.02-18.41-5.66-.08-.02-.17-.05-.25-.07-.05-.01-.1-.02-.15-.04-18.8-4.91-38.51-7.55-58.84-7.55v379.86c.43,1.08.88,2.15,1.32,3.23,25.16,62.09,66.6,115.83,119.04,155.93,37.94,29.01,81.63,50.87,129.07,63.59,20.23,5.13,38.66,8.26,52.91,10.11,11.7,1.37,23.57,2.2,35.58,2.45,4.98-.12,8.81-.3,8.81-.3.71-.03,1.42-.09,2.13-.13-29.63-8.44-55.82-25.05-75.92-47.29Z"/>
    <path class="cls-1" d="m1040.67,249.55c-19.06-2.12-37.24.48-53.73,6.58-5.76,2.13-11.34,4.65-16.64,7.61-.01,0-.02.01-.04.02-6.54,3.66-12.71,7.9-18.4,12.7-25.63,21.59-41.94,53.9-41.94,90.04-.08,108.51-.16,217.02-.24,325.52-.02,23.83-3.43,47.58-10.78,70.25-2.9,8.93-6.38,17.78-10.45,25.09-.73,1.31-3.77,6.87-8.66,13.81,0,0-8.11,11.52-18.38,21.62-21.59,21.23-55.11,35.74-55.11,35.74-50.69,21.06-107.46,20.89-141.86,18.57-8.27-.56-15.24-1.24-20.53-1.78-49.09-5.6-95.17-21.07-136.23-44.4-16.64-9.3-32.49-19.86-47.43-31.51-1.45-1.13-2.88-2.29-4.32-3.44-.2-.16-.39-.32-.58-.47-2.13-1.72-4.22-3.49-6.31-5.25-8-6.79-14.92-13.19-20.68-18.82-2.17-2.13-4.34-4.27-6.46-6.46-18.3-18.87-34.64-39.64-48.64-62.04-.12-.18-.23-.37-.34-.55-4.31-6.92-8.4-14-12.26-21.21-.42-.78-.83-1.57-1.24-2.35-1.48-2.81-2.92-5.65-4.33-8.5-.28-.58-.59-1.14-.88-1.72v20.26c0,74.1,16.55,140.36,49.69,198.74,33.12,58.41,79.54,103.95,139.25,136.64,59.7,32.69,128.79,49.03,207.24,49.03s148.41-16.34,207.24-49.03c58.84-32.69,104.81-78,137.94-135.98,33.12-57.96,49.69-123.99,49.69-198.09v-321.67c0-60.31-44.67-112.27-104.61-118.92Z"/>
  </g>
  <g>
    <path class="cls-2" d="m891.84,1208.62l-43.75-51.85h-24.7v94.4h17.87v-78.43s44.27,51.55,44.27,51.55c5.66,6.44,6.12,18.02,6.12,26.88h19.81v-94.4h-19.61s0,51.85,0,51.85Z"/>
    <path class="cls-2" d="m1111.56,1196.61l34.71-39.83h-24.01s-46.18,51.05-46.18,51.05v-51.05s-17.86,0-17.86,0v94.4h17.87s0-20.36,0-20.36l22.29-22.19c15.46,7.26,24.3,28.02,24.3,42.54h19.61c0-19.89-9.79-44.25-30.71-54.56Z"/>
    <path class="cls-2" d="m423.87,1202.38c4.71-4.8,7.64-11.04,7.64-18.01,0-15.25-13.82-27.59-30.87-27.59h-46.91v39.66h17.87v-23.68h29.04c7.15,0,13,5.23,13,11.62s-5.85,11.62-13,11.62h-46.91v55.19h57.19c17.06,0,30.42-6.84,30.87-27.59.33-15.47-11.13-19.61-17.91-21.2Zm-12.95,32.82h-39.32v-23.24h39.32c7.15,0,13,5.23,13,11.62s-5.85,11.62-13,11.62Z"/>
    <path class="cls-2" d="m577.6,1251.18l43.38-94.87h23.06l43.54,94.87h-19.35l-9.84-21.99h-52.4l-9.84,21.99h-18.54Zm34.18-35.12h40.63l-12.42-27.8c-.32-.83-.81-1.98-1.45-3.46-.64-1.47-1.32-3.09-2.02-4.84-.7-1.75-1.4-3.53-2.1-5.32-.7-1.8-1.32-3.43-1.85-4.91h-.97c-.64,1.75-1.45,3.83-2.42,6.22-.97,2.4-1.91,4.7-2.82,6.91-.91,2.21-1.69,4.01-2.34,5.39l-12.26,27.8Z"/>
  </g>
</svg>